<?xml version="1.0" encoding="UTF-8" standalone="no"?>
<!-- Created with Inkscape (http://www.inkscape.org/) -->

<svg
   xmlns:dc="http://purl.org/dc/elements/1.1/"
   xmlns:cc="http://creativecommons.org/ns#"
   xmlns:rdf="http://www.w3.org/1999/02/22-rdf-syntax-ns#"
   xmlns:svg="http://www.w3.org/2000/svg"
   xmlns="http://www.w3.org/2000/svg"
   xmlns:sodipodi="http://sodipodi.sourceforge.net/DTD/sodipodi-0.dtd"
   xmlns:inkscape="http://www.inkscape.org/namespaces/inkscape"
   width="435.60019"
   height="86.68187"
   id="svg6197"
   version="1.1"
   preserveAspectRatio="xMinYMin"
   inkscape:version="0.48.4 r9939"
   sodipodi:docname="quintile.svg"
   viewBox="0 0 92.105227 95.107924">
  <metadata
     id="metadata8290">
    <rdf:RDF>
      <cc:Work
         rdf:about="">
        <dc:format>image/svg+xml</dc:format>
        <dc:type
           rdf:resource="http://purl.org/dc/dcmitype/StillImage" />
      </cc:Work>
    </rdf:RDF>
  </metadata>
  <defs
     id="defs6199">
    <inkscape:path-effect
       effect="spiro"
       id="path-effect4246"
       is_visible="true" />
    <clipPath
       clipPathUnits="userSpaceOnUse"
       id="clipPath5111">
      <path
         inkscape:connector-curvature="0"
         d="m 0,841.89 595.28,0 L 595.28,0 0,0 0,841.89 z"
         id="path5113" />
    </clipPath>
    <clipPath
       clipPathUnits="userSpaceOnUse"
       id="clipPath5087">
      <path
         inkscape:connector-curvature="0"
         d="m 0,841.89 595.28,0 L 595.28,0 0,0 0,841.89 z"
         id="path5089" />
    </clipPath>
    <clipPath
       clipPathUnits="userSpaceOnUse"
       id="clipPath5065">
      <path
         inkscape:connector-curvature="0"
         d="m 0,841.89 595.28,0 L 595.28,0 0,0 0,841.89 z"
         id="path5067" />
    </clipPath>
    <clipPath
       clipPathUnits="userSpaceOnUse"
       id="clipPath5065-2">
      <path
         inkscape:connector-curvature="0"
         d="m 0,841.89 595.28,0 L 595.28,0 0,0 0,841.89 z"
         id="path5067-0" />
    </clipPath>
    <clipPath
       clipPathUnits="userSpaceOnUse"
       id="clipPath5065-2-9">
      <path
         inkscape:connector-curvature="0"
         d="m 0,841.89 595.28,0 L 595.28,0 0,0 0,841.89 z"
         id="path5067-0-9" />
    </clipPath>
    <clipPath
       clipPathUnits="userSpaceOnUse"
       id="clipPath5065-2-9-3">
      <path
         inkscape:connector-curvature="0"
         d="m 0,841.89 595.28,0 L 595.28,0 0,0 0,841.89 z"
         id="path5067-0-9-4" />
    </clipPath>
  </defs>
  <sodipodi:namedview
     id="base"
     pagecolor="#ffffff"
     bordercolor="#666666"
     borderopacity="1.0"
     inkscape:pageopacity="0.0"
     inkscape:pageshadow="2"
     inkscape:zoom="1.4"
     inkscape:cx="411.15372"
     inkscape:cy="-82.124425"
     inkscape:document-units="px"
     inkscape:current-layer="svg6197"
     showgrid="false"
     fit-margin-top="5"
     fit-margin-left="0.3"
     fit-margin-right="0.3"
     fit-margin-bottom="0.3"
     inkscape:window-width="1301"
     inkscape:window-height="744"
     inkscape:window-x="65"
     inkscape:window-y="24"
     inkscape:window-maximized="1" />
  <g
     id="g7653"
     class="quintile-widget"
     transform="matrix(3.8860697,0,0,3.8860697,237.97773,46.62014)">
    <g
       id="background"
       transform="translate(61.812429,-1.5209855)">
      <g
         id="g5085">
        <path
           id="path5093"
           style="fill:#ffffff;fill-opacity:1;stroke:#000000;stroke-width:0.14117177;stroke-linecap:butt;stroke-linejoin:miter;stroke-miterlimit:7;stroke-opacity:1;stroke-dasharray:none"
           d="m -0.21749069,0.02517704 c 0,-0.76749084 -0.63325336,-1.39070914 -1.41310251,-1.39070914 l -118.3216568,0 c -0.78085,0 -1.4131,0.6232183 -1.4131,1.39070914 l 0,5.65411096 c 0,0.7674908 0.63225,1.390709 1.4131,1.390709 l 118.3216568,0 c 0.77984915,0 1.41310251,-0.6232182 1.41310251,-1.390709 l 0,-5.65411096 z"
           inkscape:connector-curvature="0" />
        <g
           id="g5095">
          <path
             id="path5097"
             style="fill:#e9e9e9;fill-opacity:1;fill-rule:nonzero;stroke:none"
             d="m -0.992,1.045 c 0,-0.782 -0.635,-1.417 -1.417,-1.417 l -116.664,0 c -0.782,0 -1.417,0.635 -1.417,1.417 l 0,3.671 c 0,0.782 0.635,1.417 1.417,1.417 l 116.664,0 c 0.782,0 1.417,-0.635 1.417,-1.417 l 0,-3.671 z"
             inkscape:connector-curvature="0" />
        </g>
      </g>
    </g>
    <g
       id="ticks"
       transform="translate(61.812429,-3.7797339)">
      <g
         id="g7436">
        <text
           y="-2.4927812"
           x="-115.77731"
           id="text6850"
           style="font-size:6px;fill:#3c3c3c;fill-opacity:1"
           xml:space="preserve"><tspan
             style="font-size:6px;font-weight:normal;text-align:center;text-anchor:middle;fill:#3c3c3c;fill-opacity:1;font-family:Arial;-inkscape-font-specification:Arial"
             y="-2.4927812"
             x="-115.77731"
             id="tspan6852"
             sodipodi:role="line">0</tspan></text>
        <text
           y="-2.4927812"
           x="-93.85952"
           id="text6850-3"
           style="font-size:6px;fill:#3c3c3c;fill-opacity:1"
           xml:space="preserve"><tspan
             style="font-size:6px;font-weight:normal;text-align:center;text-anchor:middle;fill:#3c3c3c;fill-opacity:1;font-family:Arial;-inkscape-font-specification:Arial"
             y="-2.4927812"
             x="-93.85952"
             id="tspan6852-7"
             sodipodi:role="line">20</tspan></text>
        <text
           y="-2.4927812"
           x="-71.928535"
           id="text6850-3-5"
           style="font-size:6px;fill:#3c3c3c;fill-opacity:1"
           xml:space="preserve"><tspan
             style="font-size:6px;font-weight:normal;text-align:center;text-anchor:middle;fill:#3c3c3c;fill-opacity:1;font-family:Arial;-inkscape-font-specification:Arial"
             y="-2.4927812"
             x="-71.928535"
             id="tspan6852-7-2"
             sodipodi:role="line">40</tspan></text>
        <text
           y="-2.4927812"
           x="-50.122066"
           id="text6850-3-8"
           style="font-size:6px;fill:#3c3c3c;fill-opacity:1"
           xml:space="preserve"><tspan
             style="font-size:6px;font-weight:normal;text-align:center;text-anchor:middle;fill:#3c3c3c;fill-opacity:1;font-family:Arial;-inkscape-font-specification:Arial"
             y="-2.4927812"
             x="-50.122066"
             id="tspan6852-7-24"
             sodipodi:role="line">60</tspan></text>
        <text
           y="-2.4927812"
           x="-28.249687"
           id="text6850-3-2"
           style="font-size:6px;fill:#3c3c3c;fill-opacity:1"
           xml:space="preserve"><tspan
             style="font-size:6px;font-weight:normal;text-align:center;text-anchor:middle;fill:#3c3c3c;fill-opacity:1;font-family:Arial;-inkscape-font-specification:Arial"
             y="-2.4927812"
             x="-28.249687"
             id="tspan6852-7-1"
             sodipodi:role="line">80</tspan></text>
        <text
           y="-2.4927812"
           x="-6.5735831"
           id="text6850-3-4"
           style="font-size:6px;fill:#3c3c3c;fill-opacity:1"
           xml:space="preserve"><tspan
             style="font-size:6px;font-weight:normal;text-align:center;text-anchor:middle;fill:#3c3c3c;fill-opacity:1;font-family:Arial;-inkscape-font-specification:Arial"
             y="-2.4927812"
             x="-6.5735831"
             id="tspan6852-7-3"
             sodipodi:role="line">100</tspan></text>
      </g>
      <g
         transform="translate(-157.27671,-171.42291)"
         id="g5061">
        <g
           clip-path="url(#clipPath5065-2-9-3)"
           id="g5063">
          <path
             id="path5069"
             style="fill:#3c3c3c;fill-opacity:1;fill-rule:nonzero;stroke:none"
             d="m 52.685976,165.725 -0.533,0 0,2.171 0.533,0 0,-2.171 z"
             inkscape:connector-curvature="0" />
          <path
             id="path5071"
             style="fill:#3c3c3c;fill-opacity:1;fill-rule:nonzero;stroke:none"
             d="m 74.565149,165.725 -0.529,0 0,2.171 0.529,0 0,-2.171 z"
             inkscape:connector-curvature="0" />
          <path
             id="path5073"
             style="fill:#3c3c3c;fill-opacity:1;fill-rule:nonzero;stroke:none"
             d="m 96.447328,165.725 -0.531,0 0,2.171 0.531,0 0,-2.171 z"
             inkscape:connector-curvature="0" />
          <path
             id="path5075"
             style="fill:#3c3c3c;fill-opacity:1;fill-rule:nonzero;stroke:none"
             d="m 118.3285,165.725 -0.531,0 0,2.171 0.531,0 0,-2.171 z"
             inkscape:connector-curvature="0" />
          <path
             id="path5077"
             style="fill:#3c3c3c;fill-opacity:1;fill-rule:nonzero;stroke:none"
             d="m 140.20968,165.725 -0.531,0 0,2.171 0.531,0 0,-2.171 z"
             inkscape:connector-curvature="0" />
        </g>
      </g>
    </g>
    <g
       id="indicator"
       transform="translate(61.812429,-1.5209855)">
      <g
         id="line"
         transform="matrix(1.102436,0,0,1,-116.26637,0)">
        <line
           id="line8319"
           x1="30"
           y1="2.8805001"
           x2="90"
           y2="2.8805001"
           style="fill:none;stroke:#4f4c4d;stroke-width:0.95240861;stroke-linecap:butt;stroke-linejoin:miter;stroke-miterlimit:10;stroke-opacity:1;stroke-dasharray:none" />
      </g>
      <g
         transform="translate(80,0)"
         id="yellow-circle">
        <path
           id="path7517"
           style="fill:#f68712;fill-opacity:1;fill-rule:nonzero;stroke:#4f4c4d;stroke-width:0.19557035;stroke-miterlimit:4;stroke-opacity:1;stroke-dasharray:none"
           d="m -112.69378,2.8795 c 0,1.563 -1.269,2.833 -2.834,2.833 -1.564,0 -2.835,-1.27 -2.835,-2.833 0,-1.562 1.271,-2.831 2.835,-2.831 1.565,0 2.834,1.269 2.834,2.831"
           inkscape:connector-curvature="0" />
      </g>
      <g
         transform="translate(28.357144,0)"
         id="red-circle">
        <path
           id="path7489"
           style="fill:#d91920;fill-opacity:1;fill-rule:nonzero;stroke:#4f4c4d;stroke-width:0.19557035;stroke-miterlimit:4;stroke-opacity:1;stroke-dasharray:none"
           d="m -112.69378,2.8795 c 0,1.564 -1.269,2.835 -2.834,2.835 -1.564,0 -2.835,-1.271 -2.835,-2.835 0,-1.563 1.271,-2.833 2.835,-2.833 1.565,0 2.834,1.27 2.834,2.833"
           inkscape:connector-curvature="0" />
      </g>
      <g
         transform="translate(50,0)"
         id="result-indicator">
        <path
           id="path7522"
           style="fill:#6ba3e4;fill-opacity:1;fill-rule:nonzero;stroke:none"
           d="m -115.10328,-1.3800379 -0.85,0 0,8.435 0.85,0 0,-8.435 z"
           inkscape:connector-curvature="0" />
      </g>
      <g
         id="result-value">
        <text
           y="13.825113"
           x="-115.90768"
           id="text8326"
           style="font-size:15px;text-anchor:middle">
          <tspan
             y="13.825113"
             x="-115.90768"
             id="tspan5101"
             sodipodi:role="line"
             style="font-size:6.25px;font-variant:normal;font-weight:bold;font-stretch:normal;text-align:center;writing-mode:lr-tb;text-anchor:middle;fill:#6ba3e4;fill-opacity:1;fill-rule:nonzero;stroke:none;font-family:DIN;-inkscape-font-specification:DIN-Bold">38%</tspan>
        </text>
      </g>
    </g>
  </g>
</svg>
