<?xml version="1.0" encoding="UTF-8" standalone="no"?>
<!-- Created with Inkscape (http://www.inkscape.org/) -->

<svg
   xmlns:dc="http://purl.org/dc/elements/1.1/"
   xmlns:cc="http://creativecommons.org/ns#"
   xmlns:rdf="http://www.w3.org/1999/02/22-rdf-syntax-ns#"
   xmlns:svg="http://www.w3.org/2000/svg"
   xmlns="http://www.w3.org/2000/svg"
   xmlns:sodipodi="http://sodipodi.sourceforge.net/DTD/sodipodi-0.dtd"
   xmlns:inkscape="http://www.inkscape.org/namespaces/inkscape"
   width="42.002357"
   height="42.065334"
   id="svg6821"
   version="1.1"
   inkscape:version="0.48.4 r9939"
   sodipodi:docname="segment.svg"
   class="segmentpie">
  <metadata
     id="metadata3004">
    <rdf:RDF>
      <cc:Work
         rdf:about="">
        <dc:format>image/svg+xml</dc:format>
        <dc:type
           rdf:resource="http://purl.org/dc/dcmitype/StillImage" />
      </cc:Work>
    </rdf:RDF>
  </metadata>
  <defs
     id="defs6823" />
  <sodipodi:namedview
     id="base"
     pagecolor="#ffffff"
     bordercolor="#666666"
     borderopacity="1.0"
     inkscape:pageopacity="0.0"
     inkscape:pageshadow="2"
     inkscape:zoom="3.959798"
     inkscape:cx="1.5555943"
     inkscape:cy="21.230544"
     inkscape:document-units="px"
     inkscape:current-layer="svg6821"
     showgrid="false"
     inkscape:window-width="1301"
     inkscape:window-height="744"
     inkscape:window-x="65"
     inkscape:window-y="24"
     inkscape:window-maximized="1"
     fit-margin-top="0"
     fit-margin-left="0"
     fit-margin-right="0"
     fit-margin-bottom="0" />
  <g
     clip-path="url(#clipPath5365)"
     id="g5363"
     class="segments"
     transform="translate(-501.38692,-344.0561)">
    <g
       transform="translate(536.2793,364.9678)"
       id="g5369">
      <path
         id="path5371"
         style="fill:none;stroke:#4f4c4d;stroke-width:0.5;stroke-linecap:butt;stroke-linejoin:miter;stroke-miterlimit:10;stroke-opacity:1;stroke-dasharray:none"
         d="M 0,0 C 0.038,7.666 -6.146,13.914 -13.816,13.953 -21.484,13.994 -27.732,7.809 -27.77,0.141 -27.812,-7.528 -21.625,-13.774 -13.957,-13.816 -6.288,-13.852 -0.037,-7.666 0,0 z"
         inkscape:connector-curvature="0" />
    </g>
    <g
       transform="translate(507.2832,365.1133)"
       class="segment segment1 inactive"
       id="g2993">
      <path
         id="path5391"
         d="M 0,0 C 0.025,4.81 2.298,9.07 5.814,11.823 L 2.256,16.497 C -2.893,12.503 -5.863,6.507 -5.896,0.02 c -0.01,-1.906 0.25,-3.826 0.773,-5.713 l 5.666,1.649 C 0.195,-2.755 -0.008,-1.401 0,0"
         inkscape:connector-curvature="0" />
    </g>
    <g
       transform="translate(508.2539,359.7471)"
       class="segment segment2 inactive"
       id="g2996">
      <path
         id="path5387"
         d="M 0,0 -5.676,-1.652 C -2.834,-9.76 4.777,-15.373 13.363,-15.691 l 0.03,5.91 C 7.231,-9.482 2.061,-5.508 0,0"
         inkscape:connector-curvature="0" />
    </g>
    <g
       transform="translate(536.498,359.7471)"
       class="segment segment3 inactive"
       id="g2999">
      <path
         id="path5383"
         d="m 0,0 c -2.094,-5.484 -7.277,-9.419 -13.419,-9.696 l -0.03,-5.909 c 8.57,0.274 16.209,5.832 19.095,13.9 L 0,0 z"
         inkscape:connector-curvature="0" />
    </g>
    <g
       transform="translate(535.459,381.6104)"
       class="segment segment4  inactive"
       id="g3002">
      <path
         id="path5379"
         d="m 0,0 -3.604,-4.632 c 3.46,-2.786 5.675,-7.056 5.65,-11.845 -0.008,-1.38 -0.216,-2.711 -0.569,-3.982 l 5.64,-1.703 c 0.528,1.87 0.801,3.768 0.813,5.645 C 7.963,-10.053 5.075,-4.043 0,0"
         inkscape:connector-curvature="0" />
    </g>
    <g
       transform="translate(522.4687,380.2412)"
       id="g3005"
       class="segment segment5 inactive">
      <path
         id="path5375"
         d="M 0,0 C 3.078,-0.019 5.928,-0.955 8.307,-2.545 L 11.917,2.1 C 8.406,4.549 4.299,5.855 0.023,5.88 -4.227,5.9 -8.327,4.649 -11.846,2.258 L -8.283,-2.43 C -5.896,-0.883 -3.054,0.016 0,0"
         inkscape:connector-curvature="0" />
    </g>
  </g>
  <text
     id="label-text"
     x="21.017048"
     y="25.253859"
     style="font-size:13px">
    <tspan
       style="font-weight:bold;text-align:center;text-anchor:middle"
       id="tspan3023">3/5</tspan>
  </text>
</svg>
